<?xml version="1.0" encoding="utf-8"?>
<svg xmlns="http://www.w3.org/2000/svg" width="1024" height="1024" viewBox="0 0 1024 1024">
<rect x="0" y="0" width="1024" height="1024" rx="208" fill="#1C1A17"/>
<g transform="translate(512.25,512.3) scale(1.72) translate(-512.25,-512.3)">
<path fill="#F7F4EE" d="M379.031 368.057L644.562 368.067C630.831 377.831 617.165 388.422 603.636 398.547L526.411 456.185L483.003 487.745C475.355 493.234 465.333 499.855 458.298 505.726C478.098 520.45 493.238 531.185 517.219 539.172C555.223 514.967 600.865 504.259 645.462 502.172L645.489 512.526C627.956 511.951 596.39 517.337 579.24 522.357C509.96 542.633 450.373 594.137 415.397 656.763C403.73 678.217 392.973 706.629 389.169 730.756L634.898 730.98C635.445 694.825 635.661 658.665 635.545 622.506L645.494 622.511L645.358 742.412L379.071 742.42L379.031 368.057Z"/>
<path fill="#1C1A17" d="M393.207 378.498L614.004 378.494C611.684 380.432 609.337 382.187 606.9 383.969C586.192 399.109 566.073 414.983 545.357 430.119C513.93 453.489 482.294 476.577 450.454 499.381C426.373 473.139 395.341 414.481 393.207 378.498Z"/>
<path fill="#1C1A17" d="M448.055 512.216C469.359 529.201 481.91 534.587 504.858 546.404L504.53 546.691C501.825 549.015 498.827 550.814 496.025 552.977C488.833 558.528 480.97 564.04 474.061 569.895C441.581 596.972 415.685 631.081 398.331 669.642C394.77 677.395 392.544 684.01 389.367 691.654C388.64 695.208 388.567 688.951 388.562 689.268C388.606 686.249 388.56 683.321 388.927 680.316C388.823 638.043 388.959 595.77 389.335 553.499C406.676 540.163 429.783 524.984 448.055 512.216Z"/>
<path fill="#1C1A17" d="M388.77 408.792C389.93 410.696 392.32 418.279 393.2 420.779C394.993 425.901 397.035 430.931 399.319 435.853C409.741 458.148 426.834 485.031 442.012 504.504C435.92 509.524 426.855 515.58 420.241 520.253C410.215 526.894 398.93 535.592 389.106 541.612C389.361 497.338 389.25 453.064 388.77 408.792Z"/>
<path fill="#B68A3E" d="M511.621 282.225C526.168 281.809 538.307 293.246 538.758 307.792C539.209 322.338 527.803 334.505 513.258 334.992C498.662 335.481 486.444 324.026 485.991 309.429C485.538 294.832 497.023 282.642 511.621 282.225Z"/>
</g>
</svg>
